<svg xmlns="http://www.w3.org/2000/svg" xml:space="preserve" width="2048" height="2048"
    style="shape-rendering:geometricPrecision;text-rendering:geometricPrecision;image-rendering:optimizeQuality;fill-rule:evenodd;clip-rule:evenodd">
    <defs>
        <style>
            .fil0 {
                fill: #F59E0B;
                fill-rule: nonzero
            }
        </style>
    </defs>
    <g id="Layer_x0020_1">
        <path class="fil0"
            d="M367.231 469.072c30.711 0 58.521 12.451 78.65 32.582 20.13 20.128 32.582 47.937 32.582 78.65 0 30.71-12.453 58.518-32.582 78.65-20.131 20.129-47.939 32.581-78.65 32.581-30.711 0-58.52-12.451-78.65-32.582-20.13-20.128-32.583-47.938-32.583-78.65 0-30.712 12.452-58.52 32.582-78.65 20.13-20.13 47.939-32.581 78.651-32.581zM1033.12 469.072c30.713 0 58.521 12.451 78.65 32.582 20.13 20.128 32.582 47.936 32.582 78.65 0 30.71-12.452 58.52-32.582 78.65-20.129 20.13-47.938 32.581-78.65 32.581-30.712 0-58.521-12.451-78.65-32.582-20.13-20.128-32.582-47.938-32.582-78.65 0-30.713 12.452-58.52 32.582-78.65 20.129-20.13 47.937-32.581 78.65-32.581zM1680.77 469.072c30.712 0 58.52 12.451 78.65 32.582 20.131 20.128 32.583 47.937 32.583 78.65 0 30.71-12.454 58.52-32.582 78.65-20.13 20.13-47.94 32.581-78.651 32.581s-58.519-12.452-78.65-32.582c-20.13-20.13-32.582-47.938-32.582-78.65 0-30.712 12.452-58.52 32.582-78.65 20.129-20.13 47.939-32.581 78.65-32.581z" />
        <path
            d="m1285.82 1001.48-182.531-334.875-14.813-27.176-55.356 30.15-55.355-30.149-14.813 27.176L780.42 1001.48 451.417 652.993l-23.396-24.782-31.445 29.586h-44.81v635.587c0 84.546 80.506 158.236 210.665 209.029 121.136 47.271 287.718 76.51 471.032 76.51 183.313 0 349.897-29.239 471.032-76.51 130.16-50.795 210.667-124.484 210.667-209.03h-.69V659.509h-54.15l-27.354-25.736-27.126 28.732-320.023 338.974zm-252.356 164.825c39.464 0 75.196 16 101.061 41.864 25.865 25.866 41.864 61.598 41.864 101.061 0 39.463-15.999 75.195-41.864 101.061-25.866 25.865-61.598 41.864-101.061 41.864-39.463 0-75.195-15.999-101.061-41.864-25.865-25.866-41.864-61.598-41.864-101.06 0-39.464 15.999-75.196 41.864-101.062 25.865-25.865 61.597-41.864 101.061-41.864z"
            style="fill:#F59E0B" />
    </g>
    <path style="fill:none" d="M0 0h2048v2048H0z" />
</svg>