<svg width="800" height="800" viewBox="0 0 800 800" fill="none" xmlns="http://www.w3.org/2000/svg">
    <path
        d="M602.422 453.867C604.235 403.275 607.595 352.277 597.003 302.357C591.307 279.317 589.845 250.229 570.176 234.347C532.128 217.493 490.528 222.56 450.358 231.808C449.28 228.192 447.979 224.523 447.147 220.768C446.155 210.955 446.795 201.003 446.827 191.136C448.438 174.485 456.267 159.104 458.784 142.581C461.6 120.469 455.872 95.8293 439.819 79.712C423.829 63.904 398.891 65.1947 378.485 69.728C354.837 74.8907 342.198 97.408 336.608 119.211C328.907 142.219 326.347 166.24 325.12 190.347C323.605 211.157 323.093 232 321.685 252.811C320.8 256.064 320.31 259.861 320.608 263.488C290.848 269.269 260.8 273.205 230.272 273.771C228.662 271.381 226.294 269.419 223.403 268.853C217.974 267.797 213.632 271.883 211.67 276.608C208 279.083 206.571 284.491 207.04 288.683C207.232 290.357 207.787 292.149 208.672 293.76C202.059 385.813 216.726 478.4 204.566 570.155C198.016 609.013 193.035 648.149 194.358 687.648C193.238 716.117 223.061 724.416 246.027 726.891C269.408 730.165 292.875 732.864 316.512 733.259C379.915 731.104 438.208 699.029 501.717 694.837C525.141 693.216 548.598 692.075 572.032 690.699C601.088 693.451 600.608 638.219 604.096 617.877C608.704 563.296 603.072 508.491 602.443 453.867H602.422ZM576.235 341.248C590.987 402.613 589.067 466.421 582.923 528.8C581.078 552.384 579.744 576.053 577.995 599.68C572.054 600.235 565.846 601.984 560.491 602.304C543.68 605.323 527.051 609.344 510.283 612.565C512.79 582.261 513.238 552.469 512.672 521.024C515.595 460.661 523.019 400.651 516.278 340.171C515.659 331.68 514.998 323.189 514.262 314.709C529.302 314.165 544.352 313.739 559.381 313.099C563.413 312.683 566.549 310.741 568.768 307.957C571.435 321.451 573.664 334.325 576.235 341.248ZM230.678 357.461C231.467 357.504 232.267 357.461 233.056 357.312V357.344C248.758 353.333 264.64 350.347 280.598 347.797C281.067 378.816 280.726 409.877 282.283 440.853C286.112 480.299 295.339 519.232 292.853 559.147C292.032 581.771 290.091 604.331 288.736 626.923C267.691 626.741 246.646 626.56 225.856 629.323C225.366 629.461 224.907 629.621 224.448 629.803C227.424 539.232 227.798 448.128 230.678 357.472V357.461ZM404.63 277.077C430.816 274.485 457.216 264.299 483.606 258.517C483.648 259.125 483.691 259.712 483.723 260.288C484.63 269.941 485.792 279.573 486.934 289.195C453.302 295.253 419.712 301.579 385.643 304.725C358.891 306.901 332.31 310.581 305.632 313.451C306.166 307.84 307.04 302.272 308.459 296.8C309.227 292.651 308.928 289.056 307.958 286.123C340.214 283.435 372.566 281.664 404.63 277.088V277.077ZM313.547 610.432C309.782 571.509 310.411 532.405 308.683 493.387C305.792 452.64 302.859 410.325 304.683 369.088C305.195 360.853 305.088 352.501 304.96 344.149C325.238 341.269 345.557 338.603 365.717 334.955C392.437 329.099 419.083 322.933 446.198 319.221C460.768 317.568 475.382 316.523 490.006 315.765C491.947 332.203 493.963 348.619 495.339 365.12C496.651 393.099 496.299 421.12 498.08 449.099C499.424 484.267 494.603 519.275 489.792 554.016C488.363 564.629 483.648 590.624 481.099 616.981C480.48 617.045 479.851 617.12 479.232 617.173C431.446 621.92 383.339 622.005 335.488 626.176C328.544 626.645 321.568 626.869 314.592 626.965C314.283 621.461 313.931 615.957 313.536 610.453L313.547 610.432ZM550.027 260.384C554.848 262.4 558.582 269.408 561.632 278.624C558.347 277.611 554.315 277.611 549.536 279.061C536.747 280.725 524.011 282.741 511.296 284.907C510.838 280.843 510.358 276.789 509.846 272.736C508.64 268.512 508.459 261.696 507.862 254.795C521.952 253.749 536.011 254.997 550.027 260.395V260.384ZM347.744 228.416C349.088 202.816 348.619 176.971 352.288 151.573C357.195 128.725 363.349 99.3813 389.92 93.664C420.213 84.5226 441.408 95.5627 439.317 129.184C436.587 141.813 429.11 152.917 424.63 164.992C416.95 183.627 417.014 204.576 418.56 224.363C419.04 228.171 420.086 233.557 421.75 238.933C415.222 240.64 408.758 242.336 402.4 243.957C383.371 249.077 364.267 254.005 345.056 258.347C346.976 247.467 346.731 234.613 347.734 228.416H347.744ZM285.717 288.16C285.451 288.853 285.206 289.579 284.971 290.347C282.272 298.624 281.237 307.221 280.853 315.904C264.277 317.707 247.936 320.981 231.819 325.237C232.203 315.424 232.608 305.621 233.078 295.819C250.528 292.32 268.096 289.973 285.717 288.16ZM222.123 688.288C222.603 678.24 223.03 668.181 223.435 658.112C225.088 659.008 227.008 659.531 229.216 659.52C248.576 659.552 267.979 659.349 287.382 658.752C287.318 661.973 287.275 665.205 287.264 668.427C287.883 676.405 286.773 685.845 287.552 694.56C277.611 694.923 267.67 695.381 257.75 696.043C245.771 695.744 231.862 696.309 222.123 688.277V688.288ZM316.939 693.717C316.726 692.395 316.395 691.115 315.904 689.941C316.128 679.147 316.086 668.352 315.84 657.557C350.88 655.691 385.814 652.235 420.331 646.144C440.011 643.168 459.776 641.077 479.584 639.573C479.093 654.645 479.926 668.299 483.264 677.365C459.99 681.952 436.704 686.4 413.12 688.949C381.205 692.352 349.067 692.939 316.95 693.717H316.939ZM571.67 662.859C550.55 664.789 529.675 668.373 508.864 672.352C509.152 669.067 508.79 665.771 507.712 663.008C507.84 654.592 508.171 646.176 508.502 637.76C530.614 636.651 552.768 636.075 574.891 635.659C573.963 644.747 572.907 653.813 571.67 662.848V662.859Z"
        fill="white" />
    <path
        d="M371.52 446.411C379.061 446.411 382.912 437.899 382.912 431.413C382.912 424.928 379.061 416.416 371.52 416.416C363.979 416.416 360.128 424.928 360.128 431.413C360.128 437.899 363.979 446.411 371.52 446.411Z"
        fill="white" />
    <path
        d="M425.013 441.6C431.311 441.6 436.416 434.886 436.416 426.603C436.416 418.32 431.311 411.605 425.013 411.605C418.716 411.605 413.61 418.32 413.61 426.603C413.61 434.886 418.716 441.6 425.013 441.6Z"
        fill="white" />
    <path
        d="M394.869 503.05C414.987 507.082 431.669 496.874 447.691 486.112C450.901 483.957 454.059 481.717 457.408 479.776C467.243 473.706 466.539 455.338 455.829 450.592C446.976 447.872 440.149 457.28 432.64 460.544C425.141 464.394 418.048 469.92 409.547 471.178C376.715 473.941 375.573 453.781 363.413 457.877C354.56 461.856 353.173 474.581 358.091 482.144C365.963 494.634 380.555 501.386 394.869 503.04V503.05Z"
        fill="white" />
</svg>