<svg width="800" height="800" viewBox="0 0 800 800" fill="none" xmlns="http://www.w3.org/2000/svg">
    <path
        d="M602.421 453.867C604.234 403.275 607.594 352.277 597.002 302.357C591.306 279.317 589.845 250.229 570.175 234.347C532.127 217.493 490.527 222.56 450.357 231.808C449.279 228.192 447.978 224.523 447.146 220.768C446.154 210.955 446.794 201.003 446.826 191.136C448.437 174.485 456.266 159.104 458.783 142.581C461.599 120.469 455.871 95.8293 439.818 79.712C423.829 63.904 398.89 65.1947 378.485 69.728C354.837 74.8907 342.197 97.408 336.607 119.211C328.906 142.219 326.346 166.24 325.119 190.347C323.605 211.157 323.093 232 321.685 252.811C320.799 256.064 320.309 259.861 320.607 263.488C290.847 269.269 260.799 273.205 230.271 273.771C228.661 271.381 226.293 269.419 223.402 268.853C217.973 267.797 213.631 271.883 211.669 276.608C207.999 279.083 206.57 284.491 207.039 288.683C207.231 290.357 207.786 292.149 208.671 293.76C202.058 385.813 216.725 478.4 204.565 570.155C198.015 609.013 193.034 648.149 194.357 687.648C193.237 716.117 223.061 724.416 246.026 726.891C269.407 730.165 292.874 732.864 316.511 733.259C379.914 731.104 438.207 699.029 501.717 694.837C525.141 693.216 548.597 692.075 572.031 690.699C601.087 693.451 600.607 638.219 604.095 617.877C608.703 563.296 603.071 508.491 602.442 453.867H602.421ZM576.234 341.248C590.986 402.613 589.066 466.421 582.922 528.8C581.077 552.384 579.743 576.053 577.994 599.68C572.053 600.235 565.845 601.984 560.49 602.304C543.679 605.323 527.05 609.344 510.282 612.565C512.789 582.261 513.237 552.469 512.671 521.024C515.594 460.661 523.018 400.651 516.277 340.171C515.658 331.68 514.997 323.189 514.261 314.709C529.301 314.165 544.351 313.739 559.381 313.099C563.413 312.683 566.549 310.741 568.767 307.957C571.434 321.451 573.663 334.325 576.234 341.248ZM230.677 357.461C231.466 357.504 232.266 357.461 233.055 357.312V357.344C248.757 353.333 264.639 350.347 280.597 347.797C281.066 378.816 280.725 409.877 282.282 440.853C286.111 480.299 295.338 519.232 292.853 559.147C292.031 581.771 290.09 604.331 288.735 626.923C267.69 626.741 246.645 626.56 225.855 629.323C225.365 629.461 224.906 629.621 224.447 629.803C227.423 539.232 227.797 448.128 230.677 357.472V357.461ZM404.629 277.077C430.815 274.485 457.215 264.299 483.605 258.517C483.647 259.125 483.69 259.712 483.722 260.288C484.629 269.941 485.791 279.573 486.933 289.195C453.301 295.253 419.711 301.579 385.642 304.725C358.89 306.901 332.309 310.581 305.631 313.451C306.165 307.84 307.039 302.272 308.458 296.8C309.226 292.651 308.927 289.056 307.957 286.123C340.213 283.435 372.565 281.664 404.629 277.088V277.077ZM313.546 610.432C309.781 571.509 310.41 532.405 308.682 493.387C305.791 452.64 302.858 410.325 304.682 369.088C305.194 360.853 305.087 352.501 304.959 344.149C325.237 341.269 345.557 338.603 365.717 334.955C392.437 329.099 419.082 322.933 446.197 319.221C460.767 317.568 475.381 316.523 490.005 315.765C491.946 332.203 493.962 348.619 495.338 365.12C496.65 393.099 496.298 421.12 498.079 449.099C499.423 484.267 494.602 519.275 489.791 554.016C488.362 564.629 483.647 590.624 481.098 616.981C480.479 617.045 479.85 617.12 479.231 617.173C431.445 621.92 383.338 622.005 335.487 626.176C328.543 626.645 321.567 626.869 314.591 626.965C314.282 621.461 313.93 615.957 313.535 610.453L313.546 610.432ZM550.026 260.384C554.847 262.4 558.581 269.408 561.631 278.624C558.346 277.611 554.314 277.611 549.535 279.061C536.746 280.725 524.01 282.741 511.295 284.907C510.837 280.843 510.357 276.789 509.845 272.736C508.639 268.512 508.458 261.696 507.861 254.795C521.951 253.749 536.01 254.997 550.026 260.395V260.384ZM347.743 228.416C349.087 202.816 348.618 176.971 352.287 151.573C357.194 128.725 363.349 99.3813 389.919 93.664C420.213 84.5226 441.407 95.5627 439.317 129.184C436.586 141.813 429.109 152.917 424.629 164.992C416.949 183.627 417.013 204.576 418.559 224.363C419.039 228.171 420.085 233.557 421.749 238.933C415.221 240.64 408.757 242.336 402.399 243.957C383.37 249.077 364.266 254.005 345.055 258.347C346.975 247.467 346.73 234.613 347.733 228.416H347.743ZM285.717 288.16C285.45 288.853 285.205 289.579 284.97 290.347C282.271 298.624 281.237 307.221 280.853 315.904C264.277 317.707 247.935 320.981 231.818 325.237C232.202 315.424 232.607 305.621 233.077 295.819C250.527 292.32 268.095 289.973 285.717 288.16ZM222.122 688.288C222.602 678.24 223.029 668.181 223.434 658.112C225.087 659.008 227.007 659.531 229.215 659.52C248.575 659.552 267.978 659.349 287.381 658.752C287.317 661.973 287.274 665.205 287.263 668.427C287.882 676.405 286.773 685.845 287.551 694.56C277.61 694.923 267.669 695.381 257.749 696.043C245.77 695.744 231.861 696.309 222.122 688.277V688.288ZM316.938 693.717C316.725 692.395 316.394 691.115 315.903 689.941C316.127 679.147 316.085 668.352 315.839 657.557C350.879 655.691 385.813 652.235 420.33 646.144C440.01 643.168 459.775 641.077 479.583 639.573C479.093 654.645 479.925 668.299 483.263 677.365C459.989 681.952 436.703 686.4 413.119 688.949C381.205 692.352 349.066 692.939 316.949 693.717H316.938ZM571.669 662.859C550.549 664.789 529.674 668.373 508.863 672.352C509.151 669.067 508.789 665.771 507.711 663.008C507.839 654.592 508.17 646.176 508.501 637.76C530.613 636.651 552.767 636.075 574.89 635.659C573.962 644.747 572.906 653.813 571.669 662.848V662.859Z"
        fill="black" />
    <path
        d="M371.521 446.411C379.062 446.411 382.913 437.899 382.913 431.413C382.913 424.928 379.062 416.416 371.521 416.416C363.98 416.416 360.129 424.928 360.129 431.413C360.129 437.899 363.98 446.411 371.521 446.411Z"
        fill="black" />
    <path
        d="M425.013 441.6C431.311 441.6 436.416 434.886 436.416 426.603C436.416 418.32 431.311 411.605 425.013 411.605C418.716 411.605 413.61 418.32 413.61 426.603C413.61 434.886 418.716 441.6 425.013 441.6Z"
        fill="black" />
    <path
        d="M394.869 503.05C414.987 507.082 431.669 496.874 447.691 486.112C450.901 483.957 454.059 481.717 457.408 479.776C467.243 473.706 466.539 455.338 455.829 450.592C446.976 447.872 440.149 457.28 432.64 460.544C425.141 464.394 418.048 469.92 409.547 471.178C376.715 473.941 375.573 453.781 363.413 457.877C354.56 461.856 353.173 474.581 358.091 482.144C365.963 494.634 380.555 501.386 394.869 503.04V503.05Z"
        fill="black" />
</svg>